<svg version="1.2" xmlns="http://www.w3.org/2000/svg" viewBox="0 0 175 134" width="175" height="134">
	<style>
		.s0 { fill: #ba5186 } 
	</style>
	<path id="Path 0" class="s0" d="m17.05 13.02c-0.35 0.56-0.74 25.36-0.85 55.12l-0.2 54.11h69.71l0.04-11.75c-4.11-0.96-16.53-1.24-30.23-1.23l-24.93 0.01 0.04-96.05c-4.11-0.96-7.02-1.24-9.12-1.23-2.15 0.01-4.09 0.45-4.46 1.02zm69.47 33c-1.07 0.66-1.03 1.32 0.3 5.46 0.83 2.59 4.35 12.73 7.82 22.54 3.47 9.81 8.58 24.22 11.34 32.02 2.77 7.8 5.63 14.65 6.36 15.21 0.9 0.69 4.38 1.03 10.66 1.03l9.32 0.01c20.53-56.26 26.56-73.36 26.66-74.3 0.12-1.3-0.42-1.83-2.31-2.23-1.35-0.3-4.29-0.53-6.52-0.53h-4.05c-11.73 33.62-17.02 48.4-19.32 54.54-2.3 6.14-4.46 11.15-4.8 11.14-0.33 0-1.37-2.11-2.3-4.67-0.93-2.56-5.83-16.7-10.88-31.41-5.05-14.71-9.39-27.39-9.65-28.17-0.39-1.16-1.44-1.41-5.94-1.4-3.01 0-6.02 0.35-6.69 0.76z"/>
</svg>